<svg version="1.1" xmlns="http://www.w3.org/2000/svg" viewBox="0 0 1201 425" width="1201" height="425" id="excalidraw-export" data-scene="trajectory-loop.excalidraw"><!-- svg-source:excalidraw --><metadata></metadata><defs><style class="style-fonts">
      </style></defs><rect x="0" y="0" width="1201" height="425" fill="#ffffff"></rect><g stroke-linecap="round" transform="translate(10 10) rotate(0 102.5 105)"><path d="M32 0 C63.18 2.26, 95.34 2.56, 173 0 C195.59 1.24, 203.69 9.07, 205 32 C204.99 58.39, 201.68 91.28, 205 178 C206.08 200.79, 194.98 212.91, 173 210 C138.04 212.43, 104.93 211.84, 32 210 C9.59 209.53, -0.68 202.49, 0 178 C4.71 130.19, 5.29 86.29, 0 32 C-3.54 7.23, 11.14 1.33, 32 0" stroke="none" stroke-width="0" fill="#ffffff"></path><path d="M32 0 C65.68 0.56, 101.34 1.29, 173 0 M32 0 C75.03 0.66, 118.11 -0.05, 173 0 M173 0 C194.11 1.11, 206.86 8.84, 205 32 M173 0 C196.46 1.16, 203.32 8.78, 205 32 M205 32 C203.83 61.35, 205.3 90.9, 205 178 M205 32 C206.16 70.45, 206.17 111.34, 205 178 M205 178 C206.33 199.33, 195.77 210.99, 173 210 M205 178 C202.99 201.43, 193.9 209.78, 173 210 M173 210 C135.74 209.54, 101.83 212, 32 210 M173 210 C128.34 209.64, 82.68 209.19, 32 210 M32 210 C10.97 210.64, 0.77 200.97, 0 178 M32 210 C12.41 210.38, -1.28 197.16, 0 178 M0 178 C-0.49 139.92, 0.72 101.6, 0 32 M0 178 C-0.57 123.94, -0.63 67.5, 0 32 M0 32 C-0.17 9.42, 9.16 -0.83, 32 0 M0 32 C1.85 10.75, 9.99 0.62, 32 0" stroke="#1e1e1e" stroke-width="2" fill="none"></path></g><g transform="translate(32 79.375) rotate(0 80.5 35.625)"><text x="80.5" y="16.739" font-family="Virgil, Segoe UI Emoji" font-size="19px" fill="#1e1e1e" text-anchor="middle" style="white-space: pre;" direction="ltr" dominant-baseline="alphabetic">01 · 真实工作</text><text x="80.5" y="40.489000000000004" font-family="Virgil, Segoe UI Emoji" font-size="19px" fill="#1e1e1e" text-anchor="middle" style="white-space: pre;" direction="ltr" dominant-baseline="alphabetic">Agent 执行服务与插件</text><text x="80.5" y="64.239" font-family="Virgil, Segoe UI Emoji" font-size="19px" fill="#1e1e1e" text-anchor="middle" style="white-space: pre;" direction="ltr" dominant-baseline="alphabetic">产生行为与结果</text></g><g stroke-linecap="round" transform="translate(254 10) rotate(0 102.5 105)"><path d="M32 0 C77.68 -0.52, 126.21 1.4, 173 0 C194.63 -2.41, 205.02 12.27, 205 32 C205.35 86.61, 204.5 147.98, 205 178 C207.79 196.67, 197.44 206.98, 173 210 C133.67 215.17, 97.71 210.75, 32 210 C12.33 208.16, -1.92 196.36, 0 178 C-3.73 125.69, -0.2 75.16, 0 32 C0.15 13.32, 9.51 3.06, 32 0" stroke="none" stroke-width="0" fill="#ffffff"></path><path d="M32 0 C77.06 -0.97, 121.15 0.05, 173 0 M32 0 C81.3 1.04, 129.26 0.14, 173 0 M173 0 C194.98 -1.47, 206.96 11.58, 205 32 M173 0 C192.51 -1.38, 203.39 11.31, 205 32 M205 32 C205.06 62.05, 204.66 92.17, 205 178 M205 32 C203.66 78.26, 203.79 125.13, 205 178 M205 178 C203.57 197.53, 194.38 209.9, 173 210 M205 178 C202.99 198.16, 194.17 211.71, 173 210 M173 210 C135.1 208.91, 95.92 210.65, 32 210 M173 210 C132.14 211.94, 92.48 211.26, 32 210 M32 210 C10.99 209.79, 1.29 197.69, 0 178 M32 210 C12.01 207.87, 1.21 198.84, 0 178 M0 178 C-1.69 125.48, 0.48 78, 0 32 M0 178 C-0.63 139.72, 0.13 101.54, 0 32 M0 32 C-0.17 9.13, 12.23 1.01, 32 0 M0 32 C-1.78 10.84, 11.02 1.59, 32 0" stroke="#1e1e1e" stroke-width="2" fill="none"></path></g><g transform="translate(276 79.375) rotate(0 80.5 35.625)"><text x="80.5" y="16.739" font-family="Virgil, Segoe UI Emoji" font-size="19px" fill="#1e1e1e" text-anchor="middle" style="white-space: pre;" direction="ltr" dominant-baseline="alphabetic">02 · Traj 资产</text><text x="80.5" y="40.489000000000004" font-family="Virgil, Segoe UI Emoji" font-size="19px" fill="#1e1e1e" text-anchor="middle" style="white-space: pre;" direction="ltr" dominant-baseline="alphabetic">意图 / 工具 / 回执</text><text x="80.5" y="64.239" font-family="Virgil, Segoe UI Emoji" font-size="19px" fill="#1e1e1e" text-anchor="middle" style="white-space: pre;" direction="ltr" dominant-baseline="alphabetic">成为后端开发输入</text></g><g stroke-linecap="round" transform="translate(498 10) rotate(0 102.5 105)"><path d="M32 0 C71.17 -1.18, 100.67 -4.84, 173 0 C193.68 1.13, 206.36 8.28, 205 32 C210.95 85.63, 205.38 139.09, 205 178 C202.31 199.74, 192.7 208.26, 173 210 C136.49 205.64, 97.7 204.59, 32 210 C7.86 206.8, -3.15 197.42, 0 178 C0.28 121.18, -0.44 64.03, 0 32 C-3.37 12.2, 7.89 -2.41, 32 0" stroke="none" stroke-width="0" fill="#f4e7e1"></path><path d="M32 0 C88.44 1.5, 140.97 -1.18, 173 0 M32 0 C85.57 1.43, 140.41 0.32, 173 0 M173 0 C195.85 -0.04, 203.06 10.32, 205 32 M173 0 C193.16 0.68, 203.46 9.23, 205 32 M205 32 C205.21 62.75, 206.94 93.45, 205 178 M205 32 C204.09 86.07, 204.34 138.91, 205 178 M205 178 C204.81 199.72, 193 208.82, 173 210 M205 178 C202.98 199.49, 194.43 209.03, 173 210 M173 210 C130.45 212.28, 90.01 209.3, 32 210 M173 210 C137.94 209.42, 104.28 210.51, 32 210 M32 210 C11.01 208.93, 1.81 198.42, 0 178 M32 210 C11.61 209.96, -0.89 200.52, 0 178 M0 178 C-2.89 144.24, 0.23 108.8, 0 32 M0 178 C1.31 126.29, 0.89 75.18, 0 32 M0 32 C-0.16 8.84, 11.29 -1.15, 32 0 M0 32 C-0.81 10.93, 12.06 -2.04, 32 0" stroke="#d97757" stroke-width="3" fill="none"></path></g><g transform="translate(520 79.375) rotate(0 80.5 35.625)"><text x="80.5" y="16.739" font-family="Virgil, Segoe UI Emoji" font-size="19px" fill="#d97757" text-anchor="middle" style="white-space: pre;" direction="ltr" dominant-baseline="alphabetic">03 · META Harness</text><text x="80.5" y="40.489000000000004" font-family="Virgil, Segoe UI Emoji" font-size="19px" fill="#d97757" text-anchor="middle" style="white-space: pre;" direction="ltr" dominant-baseline="alphabetic">以真实 Traj 为输入</text><text x="80.5" y="64.239" font-family="Virgil, Segoe UI Emoji" font-size="19px" fill="#d97757" text-anchor="middle" style="white-space: pre;" direction="ltr" dominant-baseline="alphabetic">驱动后端开发与调试</text></g><g stroke-linecap="round" transform="translate(742 10) rotate(0 102.5 105)"><path d="M32 0 C85.67 -3.96, 138.74 1.2, 173 0 C192.72 -2.53, 207.69 11.49, 205 32 C204.11 84.64, 208.21 137.39, 205 178 C204.02 202.82, 195.16 209.54, 173 210 C132.12 208.38, 90.49 210.7, 32 210 C10.6 212.63, 2.81 198.49, 0 178 C-0.96 145.88, 1.27 111.3, 0 32 C0.32 11.09, 13.47 -0.68, 32 0" stroke="none" stroke-width="0" fill="#ffffff"></path><path d="M32 0 C67.62 -0.03, 104.39 1.59, 173 0 M32 0 C63.64 -1.01, 95.16 -0.31, 173 0 M173 0 C192.71 1.38, 203.16 9.07, 205 32 M173 0 C193.81 -1.85, 203.54 11.76, 205 32 M205 32 C206.44 63.44, 206.3 94.72, 205 178 M205 32 C204.51 64.68, 204.89 96.29, 205 178 M205 178 C206.05 197.92, 195.61 211.74, 173 210 M205 178 C202.98 200.82, 194.7 210.95, 173 210 M173 210 C129.81 211.66, 84.1 211.96, 32 210 M173 210 C143.74 211.73, 114.08 210.59, 32 210 M32 210 C11.03 208.08, -1.66 199.14, 0 178 M32 210 C11.21 212.05, 1.61 197.6, 0 178 M0 178 C2.83 129.8, 2.9 85.2, 0 32 M0 178 C-1.67 144.06, -1.27 109.21, 0 32 M0 32 C-0.16 12.55, 10.35 0.69, 32 0 M0 32 C0.16 11.01, 8.49 -1.08, 32 0" stroke="#1e1e1e" stroke-width="2" fill="none"></path></g><g transform="translate(764 79.375) rotate(0 80.5 35.625)"><text x="80.5" y="16.739" font-family="Virgil, Segoe UI Emoji" font-size="19px" fill="#1e1e1e" text-anchor="middle" style="white-space: pre;" direction="ltr" dominant-baseline="alphabetic">04 · Benchmark</text><text x="80.5" y="40.489000000000004" font-family="Virgil, Segoe UI Emoji" font-size="19px" fill="#1e1e1e" text-anchor="middle" style="white-space: pre;" direction="ltr" dominant-baseline="alphabetic">任务集 / 评测器 / 基线</text><text x="80.5" y="64.239" font-family="Virgil, Segoe UI Emoji" font-size="19px" fill="#1e1e1e" text-anchor="middle" style="white-space: pre;" direction="ltr" dominant-baseline="alphabetic">形成可重复评测</text></g><g stroke-linecap="round" transform="translate(986 10) rotate(0 102.5 105)"><path d="M32 0 C71.96 0.45, 113.2 0.04, 173 0 C191.76 1.01, 201.83 7.5, 205 32 C204.46 83.66, 203.83 135.7, 205 178 C205.73 198.7, 197.62 210.81, 173 210 C127.74 211.12, 90.47 209.61, 32 210 C13.34 211.26, 1.58 199.55, 0 178 C3.05 134.18, 1.03 100.17, 0 32 C-3.19 9.97, 11.84 1.05, 32 0" stroke="none" stroke-width="0" fill="#ffffff"></path><path d="M32 0 C78.99 -0.38, 124.21 -2.46, 173 0 M32 0 C67.91 -0.63, 104.3 -0.13, 173 0 M173 0 C193.58 -1.19, 203.25 11.81, 205 32 M173 0 C194.45 0.21, 203.61 9.68, 205 32 M205 32 C203.66 64.14, 205.66 92, 205 178 M205 32 C206.93 70.49, 205.44 110.08, 205 178 M205 178 C203.29 200.11, 194.23 210.65, 173 210 M205 178 C202.98 197.54, 194.96 208.27, 173 210 M173 210 C125.17 211.03, 78.19 210.61, 32 210 M173 210 C121.34 209.21, 67.48 209.84, 32 210 M32 210 C11.05 211.22, -1.14 199.86, 0 178 M32 210 C10.81 209.54, -0.49 199.28, 0 178 M0 178 C1.63 148.56, 2.66 116, 0 32 M0 178 C0.27 130.63, -0.51 82.85, 0 32 M0 32 C-0.16 12.27, 9.42 -1.47, 32 0 M0 32 C1.13 11.1, 9.52 -0.11, 32 0" stroke="#1e1e1e" stroke-width="2" fill="none"></path></g><g transform="translate(1008 79.375) rotate(0 80.5 35.625)"><text x="80.5" y="16.739" font-family="Virgil, Segoe UI Emoji" font-size="19px" fill="#1e1e1e" text-anchor="middle" style="white-space: pre;" direction="ltr" dominant-baseline="alphabetic">05 · 迭代</text><text x="80.5" y="40.489000000000004" font-family="Virgil, Segoe UI Emoji" font-size="19px" fill="#1e1e1e" text-anchor="middle" style="white-space: pre;" direction="ltr" dominant-baseline="alphabetic">服务与插件版本</text><text x="80.5" y="64.239" font-family="Virgil, Segoe UI Emoji" font-size="19px" fill="#1e1e1e" text-anchor="middle" style="white-space: pre;" direction="ltr" dominant-baseline="alphabetic">Benchmark 验证后发布</text></g><g stroke-linecap="round"><g transform="translate(215 115) rotate(0 19.5 0)"><path d="M0.28 0.52 C6.82 0.54, 32.17 -0.17, 38.67 -0.26 M-0.24 0.31 C6.52 0.43, 33.18 0.26, 39.74 0.31" stroke="#d97757" stroke-width="2" fill="none"></path></g><g transform="translate(215 115) rotate(0 19.5 0)"><path d="M21.42 6.98 C26.03 5.02, 28.33 4.76, 39.74 0.31 M21.42 6.98 C27.03 4.76, 32.18 2.92, 39.74 0.31" stroke="#d97757" stroke-width="2" fill="none"></path></g><g transform="translate(215 115) rotate(0 19.5 0)"><path d="M21.41 -6.35 C25.98 -5.65, 28.28 -3.23, 39.74 0.31 M21.41 -6.35 C26.98 -4.62, 32.13 -2.5, 39.74 0.31" stroke="#d97757" stroke-width="2" fill="none"></path></g></g><mask></mask><g stroke-linecap="round"><g transform="translate(459 115) rotate(0 19.5 0)"><path d="M0.19 0.15 C6.83 0.19, 33.11 0.36, 39.5 0.25 M-0.37 -0.24 C6.27 -0.37, 32.67 -0.6, 39.32 -0.58" stroke="#d97757" stroke-width="2" fill="none"></path></g><g transform="translate(459 115) rotate(0 19.5 0)"><path d="M21.02 6.16 C25.61 5.42, 30.12 2.06, 39.32 -0.58 M21.02 6.16 C25.35 4.8, 29.38 2.96, 39.32 -0.58" stroke="#d97757" stroke-width="2" fill="none"></path></g><g transform="translate(459 115) rotate(0 19.5 0)"><path d="M20.97 -7.18 C25.58 -4.77, 30.09 -4.98, 39.32 -0.58 M20.97 -7.18 C25.3 -5.65, 29.34 -4.62, 39.32 -0.58" stroke="#d97757" stroke-width="2" fill="none"></path></g></g><mask></mask><g stroke-linecap="round"><g transform="translate(703 115) rotate(0 19.5 0)"><path d="M0.1 -0.21 C6.66 -0.34, 32.77 -0.4, 39.22 -0.33 M-0.51 -0.8 C6.01 -0.9, 32.43 0.19, 38.91 0.2" stroke="#d97757" stroke-width="2" fill="none"></path></g><g transform="translate(703 115) rotate(0 19.5 0)"><path d="M20.43 6.44 C25.05 5.12, 29.86 2.7, 38.91 0.2 M20.43 6.44 C26.23 4.01, 32.86 1.97, 38.91 0.2" stroke="#d97757" stroke-width="2" fill="none"></path></g><g transform="translate(703 115) rotate(0 19.5 0)"><path d="M20.74 -6.9 C25.33 -4.59, 30.06 -3.38, 38.91 0.2 M20.74 -6.9 C26.45 -4.86, 32.98 -2.43, 38.91 0.2" stroke="#d97757" stroke-width="2" fill="none"></path></g></g><mask></mask><g stroke-linecap="round"><g transform="translate(947 115) rotate(0 19.5 0)"><path d="M0.01 0.52 C6.5 0.59, 32.43 0.31, 38.95 0.18 M-0.65 0.31 C5.76 0.24, 31.91 -0.67, 38.49 -0.69" stroke="#d97757" stroke-width="2" fill="none"></path></g><g transform="translate(947 115) rotate(0 19.5 0)"><path d="M20.31 6.36 C26.84 4.1, 31.83 2.26, 38.49 -0.69 M20.31 6.36 C24.75 4.57, 29.2 2.3, 38.49 -0.69" stroke="#d97757" stroke-width="2" fill="none"></path></g><g transform="translate(947 115) rotate(0 19.5 0)"><path d="M20.03 -6.98 C26.62 -5.14, 31.69 -2.88, 38.49 -0.69 M20.03 -6.98 C24.58 -5.37, 29.1 -4.26, 38.49 -0.69" stroke="#d97757" stroke-width="2" fill="none"></path></g></g><mask></mask><g stroke-linecap="round" transform="translate(10 325) rotate(0 590.5 45)"><path d="M22.5 0 C248.81 2.5, 477.28 3.52, 1158.5 0 C1172.01 -1.06, 1181.74 8.25, 1181 22.5 C1182.45 29.14, 1182.42 38.28, 1181 67.5 C1179.35 84.39, 1170.05 90.61, 1158.5 90 C860.56 84.04, 561.21 83.77, 22.5 90 C10.64 91.49, 1.09 81.66, 0 67.5 C0.17 54.94, 0.34 39.82, 0 22.5 C-0.88 8.58, 10.56 -2.83, 22.5 0" stroke="none" stroke-width="0" fill="#f8f8f8"></path><path d="M22.5 0 C412.37 0.18, 801.21 1.31, 1158.5 0 M1158.5 0 C1174.96 -1.98, 1182.67 7.74, 1181 22.5 M1181 22.5 C1183.1 39.06, 1179.79 58.82, 1181 67.5 M1181 67.5 C1182.79 84.06, 1172.48 91.73, 1158.5 90 M1158.5 90 C912.58 86.94, 667.28 87.76, 22.5 90 M22.5 90 C5.87 91.09, 1.31 81.46, 0 67.5 M0 67.5 C-2.16 49.71, -0.43 34.59, 0 22.5 M0 22.5 C-1.77 9.41, 8.74 -0.48, 22.5 0" stroke="#d97757" stroke-width="2.5" fill="none" stroke-dasharray="8 10"></path></g><g transform="translate(32 355.625) rotate(0 568.5 14.375)"><text x="568.5" y="20.262999999999998" font-family="Virgil, Segoe UI Emoji" font-size="23px" fill="#d97757" text-anchor="middle" style="white-space: pre;" direction="ltr" dominant-baseline="alphabetic">Traj = META Harness 开发输入 · Benchmark = 服务与插件迭代门槛</text></g><g stroke-linecap="round"><g transform="translate(1088.5 220) rotate(0 0 52.5)"><path d="M-0.56 1.14 C-0.31 18.51, 0.41 86.83, 0.49 103.96 M1.34 0.7 C1.57 18.21, 0.17 87.63, -0.19 104.96" stroke="#d97757" stroke-width="2" fill="none"></path></g><g transform="translate(1088.5 220) rotate(0 0 52.5)"><path d="M-8.28 81.3 C-4.69 87.23, -6.59 91.42, -0.19 104.96 M-8.28 81.3 C-7.58 86.86, -3.95 91.56, -0.19 104.96" stroke="#d97757" stroke-width="2" fill="none"></path></g><g transform="translate(1088.5 220) rotate(0 0 52.5)"><path d="M8.82 81.64 C8.74 87.42, 3.18 91.53, -0.19 104.96 M8.82 81.64 C5.91 87.19, 5.93 91.82, -0.19 104.96" stroke="#d97757" stroke-width="2" fill="none"></path></g></g><mask></mask><g stroke-linecap="round"><g transform="translate(112.5 325) rotate(0 0 -52.5)"><path d="M-0.76 0.34 C-0.68 -17.25, -0.34 -87.42, -0.1 -104.91 M1.04 -0.52 C1.01 -17.95, -0.97 -85.62, -1.11 -103.33" stroke="#d97757" stroke-width="2" fill="none"></path></g><g transform="translate(112.5 325) rotate(0 0 -52.5)"><path d="M7.9 -80.01 C6.1 -86.06, 3.42 -90.62, -1.11 -103.33 M7.9 -80.01 C4.35 -88.34, 2.06 -95.43, -1.11 -103.33" stroke="#d97757" stroke-width="2" fill="none"></path></g><g transform="translate(112.5 325) rotate(0 0 -52.5)"><path d="M-9.2 -79.68 C-6.73 -85.71, -5.14 -90.34, -1.11 -103.33 M-9.2 -79.68 C-7.11 -87.97, -3.75 -95.17, -1.11 -103.33" stroke="#d97757" stroke-width="2" fill="none"></path></g></g><mask></mask><g transform="translate(400 259) rotate(0 200 11.25)"><text x="200" y="15.858" font-family="Virgil, Segoe UI Emoji" font-size="18px" fill="#d97757" text-anchor="middle" style="white-space: pre;" direction="ltr" dominant-baseline="alphabetic">真实工作沉淀为可复用的开发与评测资产</text></g></svg>
