<svg version="1.1" xmlns="http://www.w3.org/2000/svg" viewBox="0 0 1160 418" width="1160" height="418" id="excalidraw-export" data-scene="value-proposition.excalidraw"><!-- svg-source:excalidraw --><metadata></metadata><defs><style class="style-fonts">
      </style></defs><rect x="0" y="0" width="1160" height="418" fill="#ffffff"></rect><g transform="translate(10 10) rotate(0 150 11.25)"><text x="0" y="15.858" font-family="Virgil, Segoe UI Emoji" font-size="18px" fill="#6c7278" text-anchor="start" style="white-space: pre;" direction="ltr" dominant-baseline="alphabetic">BEFORE · 零散自动化</text></g><g transform="translate(760 10) rotate(0 175 11.25)"><text x="0" y="15.858" font-family="Virgil, Segoe UI Emoji" font-size="18px" fill="#d97757" text-anchor="start" style="white-space: pre;" direction="ltr" dominant-baseline="alphabetic">AFTER · 可评测能力系统</text></g><g stroke-linecap="round" transform="translate(10 68) rotate(0 160 170)"><path d="M32 0 C117.27 1.02, 204.84 2.58, 288 0 C309.63 -2.41, 320.02 12.27, 320 32 C318.53 137.97, 317.88 249.18, 320 308 C322.79 326.67, 312.44 336.98, 288 340 C218.73 345.37, 152.19 341.81, 32 340 C12.33 338.16, -1.92 326.36, 0 308 C-3.72 210.95, -0.99 115.28, 0 32 C0.15 13.32, 9.51 3.06, 32 0" stroke="none" stroke-width="0" fill="#f8f8f8"></path><path d="M32 0 C113.27 -0.62, 193.77 0.21, 288 0 M32 0 C120.81 1.13, 208.54 0.4, 288 0 M288 0 C309.98 -1.47, 321.96 11.58, 320 32 M288 0 C307.51 -1.38, 318.39 11.31, 320 32 M320 32 C319.48 88.98, 319.17 146.02, 320 308 M320 32 C318.04 119.79, 318.14 208.06, 320 308 M320 308 C318.57 327.53, 309.38 339.9, 288 340 M320 308 C317.99 328.16, 309.17 341.71, 288 340 M288 340 C218.17 339.44, 147.3 340.85, 32 340 M288 340 C214.6 342.31, 142.17 341.76, 32 340 M32 340 C10.99 339.79, 1.29 327.69, 0 308 M32 340 C12.01 337.87, 1.21 328.84, 0 308 M0 308 C-2.06 210.7, -0.38 117.28, 0 32 M0 308 C-0.57 235.32, 0.02 162.72, 0 32 M0 32 C-0.17 9.13, 12.23 1.01, 32 0 M0 32 C-1.78 10.84, 11.02 1.59, 32 0" stroke="#1e1e1e" stroke-width="2" fill="none"></path></g><g transform="translate(32 159.875) rotate(0 138 78.125)"><text x="138" y="22.025000000000002" font-family="Virgil, Segoe UI Emoji" font-size="25px" fill="#1e1e1e" text-anchor="middle" style="white-space: pre;" direction="ltr" dominant-baseline="alphabetic">系统是孤岛</text><text x="138" y="53.275000000000006" font-family="Virgil, Segoe UI Emoji" font-size="25px" fill="#1e1e1e" text-anchor="middle" style="white-space: pre;" direction="ltr" dominant-baseline="alphabetic"></text><text x="138" y="84.525" font-family="Virgil, Segoe UI Emoji" font-size="25px" fill="#1e1e1e" text-anchor="middle" style="white-space: pre;" direction="ltr" dominant-baseline="alphabetic">自动化很脆</text><text x="138" y="115.775" font-family="Virgil, Segoe UI Emoji" font-size="25px" fill="#1e1e1e" text-anchor="middle" style="white-space: pre;" direction="ltr" dominant-baseline="alphabetic"></text><text x="138" y="147.025" font-family="Virgil, Segoe UI Emoji" font-size="25px" fill="#1e1e1e" text-anchor="middle" style="white-space: pre;" direction="ltr" dominant-baseline="alphabetic">插件不会进化</text></g><g stroke-linecap="round" transform="translate(440 133) rotate(0 120 105)"><path d="M32 0 C80.09 -1.72, 118.5 -5.38, 208 0 C228.68 1.13, 241.36 8.28, 240 32 C245.95 85.63, 240.38 139.09, 240 178 C237.31 199.74, 227.7 208.26, 208 210 C161.79 205.15, 113.3 204.1, 32 210 C7.86 206.8, -3.15 197.42, 0 178 C0.28 121.18, -0.44 64.03, 0 32 C-3.37 12.2, 7.89 -2.41, 32 0" stroke="none" stroke-width="0" fill="#f4e7e1"></path><path d="M32 0 C101.98 1.68, 168.06 -1, 208 0 M32 0 C98.97 1.7, 167.2 0.6, 208 0 M208 0 C230.85 -0.04, 238.06 10.32, 240 32 M208 0 C228.16 0.68, 238.46 9.23, 240 32 M240 32 C240.21 62.75, 241.94 93.45, 240 178 M240 32 C239.09 86.07, 239.34 138.91, 240 178 M240 178 C239.81 199.72, 228 208.82, 208 210 M240 178 C237.98 199.49, 229.43 209.03, 208 210 M208 210 C155.07 212.37, 104.24 209.38, 32 210 M208 210 C164.31 209.32, 122.01 210.41, 32 210 M32 210 C11.01 208.93, 1.81 198.42, 0 178 M32 210 C11.61 209.96, -0.89 200.52, 0 178 M0 178 C-2.89 144.24, 0.23 108.8, 0 32 M0 178 C1.31 126.29, 0.89 75.18, 0 32 M0 32 C-0.16 8.84, 11.29 -1.15, 32 0 M0 32 C-0.81 10.93, 12.06 -2.04, 32 0" stroke="#d97757" stroke-width="3" fill="none"></path></g><g transform="translate(462 183) rotate(0 98 55)"><text x="98" y="19.381999999999998" font-family="Virgil, Segoe UI Emoji" font-size="22px" fill="#d97757" text-anchor="middle" style="white-space: pre;" direction="ltr" dominant-baseline="alphabetic">语义适配层</text><text x="98" y="46.882" font-family="Virgil, Segoe UI Emoji" font-size="22px" fill="#d97757" text-anchor="middle" style="white-space: pre;" direction="ltr" dominant-baseline="alphabetic"></text><text x="98" y="74.382" font-family="Virgil, Segoe UI Emoji" font-size="22px" fill="#d97757" text-anchor="middle" style="white-space: pre;" direction="ltr" dominant-baseline="alphabetic">Action · Receipt</text><text x="98" y="101.882" font-family="Virgil, Segoe UI Emoji" font-size="22px" fill="#d97757" text-anchor="middle" style="white-space: pre;" direction="ltr" dominant-baseline="alphabetic">DataRef · Policy</text></g><g stroke-linecap="round" transform="translate(790 68) rotate(0 180 170)"><path d="M32 0 C142.42 -4.12, 252.41 -0.3, 328 0 C347.72 -2.53, 362.69 11.49, 360 32 C360.95 131.91, 364.12 231.9, 360 308 C359.02 332.82, 350.16 339.54, 328 340 C242.08 338.23, 155.6 339.95, 32 340 C10.6 342.63, 2.81 328.49, 0 308 C-2.02 244.85, -0.29 179.81, 0 32 C0.32 11.09, 13.47 -0.68, 32 0" stroke="none" stroke-width="0" fill="#ffffff"></path><path d="M32 0 C107.84 0.93, 184.54 2.13, 328 0 M32 0 C97.74 -1.6, 163.38 -1.08, 328 0 M328 0 C347.71 1.38, 358.16 9.07, 360 32 M328 0 C348.81 -1.85, 358.54 11.76, 360 32 M360 32 C361.04 90.56, 360.94 148.99, 360 308 M360 32 C359.85 92.96, 360.15 153.09, 360 308 M360 308 C361.05 327.92, 350.61 341.74, 328 340 M360 308 C357.98 330.82, 349.7 340.95, 328 340 M328 340 C235.22 341.36, 140.57 341.58, 32 340 M328 340 C266.29 341.97, 204.27 341.13, 32 340 M32 340 C11.03 338.08, -1.66 329.14, 0 308 M32 340 C11.21 342.05, 1.61 327.6, 0 308 M0 308 C3.08 218.61, 3.13 132, 0 32 M0 308 C-2.15 242.85, -1.85 177.01, 0 32 M0 32 C-0.16 12.55, 10.35 0.69, 32 0 M0 32 C0.16 11.01, 8.49 -1.08, 32 0" stroke="#1e1e1e" stroke-width="3" fill="none"></path></g><g transform="translate(812 148) rotate(0 158 90)"><text x="158" y="21.144" font-family="Virgil, Segoe UI Emoji" font-size="24px" fill="#1e1e1e" text-anchor="middle" style="white-space: pre;" direction="ltr" dominant-baseline="alphabetic">统一的 Agent 工作台</text><text x="158" y="51.144" font-family="Virgil, Segoe UI Emoji" font-size="24px" fill="#1e1e1e" text-anchor="middle" style="white-space: pre;" direction="ltr" dominant-baseline="alphabetic"></text><text x="158" y="81.144" font-family="Virgil, Segoe UI Emoji" font-size="24px" fill="#1e1e1e" text-anchor="middle" style="white-space: pre;" direction="ltr" dominant-baseline="alphabetic">连接系统 × 语义动作</text><text x="158" y="111.144" font-family="Virgil, Segoe UI Emoji" font-size="24px" fill="#1e1e1e" text-anchor="middle" style="white-space: pre;" direction="ltr" dominant-baseline="alphabetic">数据引用 × Traj 评测</text><text x="158" y="141.144" font-family="Virgil, Segoe UI Emoji" font-size="24px" fill="#1e1e1e" text-anchor="middle" style="white-space: pre;" direction="ltr" dominant-baseline="alphabetic"></text><text x="158" y="171.144" font-family="Virgil, Segoe UI Emoji" font-size="24px" fill="#1e1e1e" text-anchor="middle" style="white-space: pre;" direction="ltr" dominant-baseline="alphabetic">可组合 · 可验证 · 可进化</text></g><g stroke-linecap="round"><g transform="translate(330 238) rotate(0 55 0)"><path d="M1.01 0.33 C19.36 0.3, 92.44 -0.27, 110.48 -0.41 M0.08 -0.54 C18.28 -0.39, 91.17 0.73, 109.78 0.91" stroke="#d97757" stroke-width="3" fill="none"></path></g><g transform="translate(330 238) rotate(0 55 0)"><path d="M86.18 9.16 C94.52 7.04, 101.06 2.25, 109.78 0.91 M86.18 9.16 C91.65 6.71, 97.65 5.07, 109.78 0.91" stroke="#d97757" stroke-width="3" fill="none"></path></g><g transform="translate(330 238) rotate(0 55 0)"><path d="M86.4 -7.94 C94.64 -4.42, 101.11 -3.58, 109.78 0.91 M86.4 -7.94 C91.91 -5.96, 97.85 -3.17, 109.78 0.91" stroke="#d97757" stroke-width="3" fill="none"></path></g></g><mask></mask><g stroke-linecap="round"><g transform="translate(680 238) rotate(0 55 0)"><path d="M0.81 -0.47 C18.99 -0.46, 91.7 0.48, 109.88 0.71 M-0.22 -1.76 C17.72 -2.16, 90.65 -1.18, 108.87 -1.04" stroke="#d97757" stroke-width="3" fill="none"></path></g><g transform="translate(680 238) rotate(0 55 0)"><path d="M85.29 7.27 C93.07 3.88, 103.64 0.92, 108.87 -1.04 M85.29 7.27 C93.98 4.96, 103.54 1.22, 108.87 -1.04" stroke="#d97757" stroke-width="3" fill="none"></path></g><g transform="translate(680 238) rotate(0 55 0)"><path d="M85.47 -9.83 C93.28 -6.98, 103.79 -3.69, 108.87 -1.04 M85.47 -9.83 C94.26 -5.68, 103.74 -2.95, 108.87 -1.04" stroke="#d97757" stroke-width="3" fill="none"></path></g></g><mask></mask></svg>
